<svg xmlns="http://www.w3.org/2000/svg" width="64px" height="64px" viewBox="0 0 64 64">
    <rect width="90%" height="90%" x="5%" y="6%" fill="#F48FB1" rx="5%" ry="5%"/>
    <rect width="90%" height="90%" x="5%" y="4%" fill="#C2185B" rx="5%" ry="5%"/>
    <path fill="#ffffff" d="M12,2A10,10 0 0,0 2,12A10,10 0 0,0 12,22A10,10 0 0,0 22,12A10,10 0 0,0 12,2M12,4A8,8 0 0,1 20,12A8,8 0 0,1 12,20A8,8 0 0,1 4,12A8,8 0 0,1 12,4M12,6A6,6 0 0,0 6,12A6,6 0 0,0 12,18A6,6 0 0,0 18,12A6,6 0 0,0 12,6M12,8A4,4 0 0,1 16,12A4,4 0 0,1 12,16A4,4 0 0,1 8,12A4,4 0 0,1 12,8M12,10A2,2 0 0,0 10,12A2,2 0 0,0 12,14A2,2 0 0,0 14,12A2,2 0 0,0 12,10Z" transform="scale(1.4) translate(11.5,11)"/>
</svg>
