<svg xmlns="http://www.w3.org/2000/svg" width="64px" height="64px" viewBox="0 0 64 64">
    <rect width="90%" height="90%" x="5%" y="6%" fill="#F5F5F5" rx="5%" ry="5%"/>
    <rect width="90%" height="90%" x="5%" y="4%" fill="#757575" rx="5%" ry="5%"/>
    <path fill="#ffffff" d="M4,15H6A2,2 0 0,1 8,17V19H9V17A2,2 0 0,1 11,15H13A2,2 0 0,1 15,17V19H16V17A2,2 0 0,1 18,15H20A2,2 0 0,1 22,17V19H23V22H1V19H2V17A2,2 0 0,1 4,15M11,7L15,10L11,13V7M4,2H20A2,2 0 0,1 22,4V13.54C21.41,13.19 20.73,13 20,13V4H4V13C3.27,13 2.59,13.19 2,13.54V4A2,2 0 0,1 4,2Z" transform="scale(1.25) translate(14,13)"/>
</svg>
