<svg xmlns="http://www.w3.org/2000/svg" width="64px" height="64px" viewBox="0 0 64 64">
    <rect width="90%" height="90%" x="5%" y="6%" fill="#4FC3F7" rx="5%" ry="5%"/>
    <rect width="90%" height="90%" x="5%" y="4%" fill="#0277BD" rx="5%" ry="5%"/>
    <path fill="#ffffff" d="M12,8A4,4 0 0,1 16,12A4,4 0 0,1 12,16A4,4 0 0,1 8,12A4,4 0 0,1 12,8M3.05,13H1V11H3.05C3.5,6.83 6.83,3.5 11,3.05V1H13V3.05C17.17,3.5 20.5,6.83 20.95,11H23V13H20.95C20.5,17.17 17.17,20.5 13,20.95V23H11V20.95C6.83,20.5 3.5,17.17 3.05,13M12,5A7,7 0 0,0 5,12A7,7 0 0,0 12,19A7,7 0 0,0 19,12A7,7 0 0,0 12,5Z" transform="scale(1.25) translate(14,13)"/>
</svg>
